<?xml version="1.0" encoding="UTF-8" standalone="no"?>
<!DOCTYPE svg PUBLIC "-//W3C//DTD SVG 1.1//EN"
 "http://www.w3.org/Graphics/SVG/1.1/DTD/svg11.dtd">
<!-- Generated by graphviz version 2.40.1 (20161225.0304)
 -->
<!-- Title: G Pages: 1 -->
<svg width="1363pt" height="1046pt"
 viewBox="0.00 0.00 1363.11 1046.00" xmlns="http://www.w3.org/2000/svg" xmlns:xlink="http://www.w3.org/1999/xlink">
<g id="graph0" class="graph" transform="scale(1 1) rotate(0) translate(4 1042)">
<title>G</title>
<polygon fill="#ffffff" stroke="transparent" points="-4,4 -4,-1042 1359.1096,-1042 1359.1096,4 -4,4"/>
<g id="clust1" class="cluster">
<title>cluster_Global</title>
<path fill="none" stroke="#c0c0c0" d="M762.9827,-98C762.9827,-98 1335.1096,-98 1335.1096,-98 1341.1096,-98 1347.1096,-104 1347.1096,-110 1347.1096,-110 1347.1096,-1018 1347.1096,-1018 1347.1096,-1024 1341.1096,-1030 1335.1096,-1030 1335.1096,-1030 762.9827,-1030 762.9827,-1030 756.9827,-1030 750.9827,-1024 750.9827,-1018 750.9827,-1018 750.9827,-110 750.9827,-110 750.9827,-104 756.9827,-98 762.9827,-98"/>
<text text-anchor="middle" x="1049.0461" y="-1017.2" font-family="Times,serif" font-size="11.00" fill="#c0c0c0">Global</text>
</g>
<g id="clust2" class="cluster">
<title>cluster_\App</title>
<path fill="none" stroke="#c0c0c0" d="M770.9827,-106C770.9827,-106 1327.1096,-106 1327.1096,-106 1333.1096,-106 1339.1096,-112 1339.1096,-118 1339.1096,-118 1339.1096,-990 1339.1096,-990 1339.1096,-996 1333.1096,-1002 1327.1096,-1002 1327.1096,-1002 770.9827,-1002 770.9827,-1002 764.9827,-1002 758.9827,-996 758.9827,-990 758.9827,-990 758.9827,-118 758.9827,-118 758.9827,-112 764.9827,-106 770.9827,-106"/>
<text text-anchor="middle" x="1049.0461" y="-989.2" font-family="Times,serif" font-size="11.00" fill="#c0c0c0">App</text>
</g>
<g id="clust3" class="cluster">
<title>cluster_\App\Service</title>
<path fill="none" stroke="#c0c0c0" d="M1184.1096,-740C1184.1096,-740 1294.1096,-740 1294.1096,-740 1300.1096,-740 1306.1096,-746 1306.1096,-752 1306.1096,-752 1306.1096,-962 1306.1096,-962 1306.1096,-968 1300.1096,-974 1294.1096,-974 1294.1096,-974 1184.1096,-974 1184.1096,-974 1178.1096,-974 1172.1096,-968 1172.1096,-962 1172.1096,-962 1172.1096,-752 1172.1096,-752 1172.1096,-746 1178.1096,-740 1184.1096,-740"/>
<text text-anchor="middle" x="1239.1096" y="-961.2" font-family="Times,serif" font-size="11.00" fill="#c0c0c0">Service</text>
</g>
<g id="clust4" class="cluster">
<title>cluster_\App\Repository</title>
<path fill="none" stroke="#c0c0c0" d="M1167.1096,-114C1167.1096,-114 1311.1096,-114 1311.1096,-114 1317.1096,-114 1323.1096,-120 1323.1096,-126 1323.1096,-126 1323.1096,-444 1323.1096,-444 1323.1096,-450 1317.1096,-456 1311.1096,-456 1311.1096,-456 1167.1096,-456 1167.1096,-456 1161.1096,-456 1155.1096,-450 1155.1096,-444 1155.1096,-444 1155.1096,-126 1155.1096,-126 1155.1096,-120 1161.1096,-114 1167.1096,-114"/>
<text text-anchor="middle" x="1239.1096" y="-443.2" font-family="Times,serif" font-size="11.00" fill="#c0c0c0">Repository</text>
</g>
<g id="clust5" class="cluster">
<title>cluster_\App\Controller</title>
<path fill="none" stroke="#c0c0c0" d="M778.9827,-464C778.9827,-464 1319.1096,-464 1319.1096,-464 1325.1096,-464 1331.1096,-470 1331.1096,-476 1331.1096,-476 1331.1096,-720 1331.1096,-720 1331.1096,-726 1325.1096,-732 1319.1096,-732 1319.1096,-732 778.9827,-732 778.9827,-732 772.9827,-732 766.9827,-726 766.9827,-720 766.9827,-720 766.9827,-476 766.9827,-476 766.9827,-470 772.9827,-464 778.9827,-464"/>
<text text-anchor="middle" x="1049.0461" y="-719.2" font-family="Times,serif" font-size="11.00" fill="#c0c0c0">Controller</text>
</g>
<g id="clust6" class="cluster">
<title>cluster_\App\Controller\SecurityController</title>
<path fill="none" stroke="#c0c0c0" d="M1174.1096,-632C1174.1096,-632 1304.1096,-632 1304.1096,-632 1310.1096,-632 1316.1096,-638 1316.1096,-644 1316.1096,-644 1316.1096,-692 1316.1096,-692 1316.1096,-698 1310.1096,-704 1304.1096,-704 1304.1096,-704 1174.1096,-704 1174.1096,-704 1168.1096,-704 1162.1096,-698 1162.1096,-692 1162.1096,-692 1162.1096,-644 1162.1096,-644 1162.1096,-638 1168.1096,-632 1174.1096,-632"/>
<text text-anchor="middle" x="1239.1096" y="-691.2" font-family="Times,serif" font-size="11.00" fill="#c0c0c0">SecurityController</text>
</g>
<g id="clust7" class="cluster">
<title>cluster_\App\Controller\TextController</title>
<path fill="none" stroke="#c0c0c0" d="M1187.6096,-552C1187.6096,-552 1290.6096,-552 1290.6096,-552 1296.6096,-552 1302.6096,-558 1302.6096,-564 1302.6096,-564 1302.6096,-612 1302.6096,-612 1302.6096,-618 1296.6096,-624 1290.6096,-624 1290.6096,-624 1187.6096,-624 1187.6096,-624 1181.6096,-624 1175.6096,-618 1175.6096,-612 1175.6096,-612 1175.6096,-564 1175.6096,-564 1175.6096,-558 1181.6096,-552 1187.6096,-552"/>
<text text-anchor="middle" x="1239.1096" y="-611.2" font-family="Times,serif" font-size="11.00" fill="#c0c0c0">TextController</text>
</g>
<g id="clust8" class="cluster">
<title>cluster_\App\Controller\ObservatorController</title>
<path fill="none" stroke="#c0c0c0" d="M1167.1096,-472C1167.1096,-472 1311.1096,-472 1311.1096,-472 1317.1096,-472 1323.1096,-478 1323.1096,-484 1323.1096,-484 1323.1096,-532 1323.1096,-532 1323.1096,-538 1317.1096,-544 1311.1096,-544 1311.1096,-544 1167.1096,-544 1167.1096,-544 1161.1096,-544 1155.1096,-538 1155.1096,-532 1155.1096,-532 1155.1096,-484 1155.1096,-484 1155.1096,-478 1161.1096,-472 1167.1096,-472"/>
<text text-anchor="middle" x="1239.1096" y="-531.2" font-family="Times,serif" font-size="11.00" fill="#c0c0c0">ObservatorController</text>
</g>
<!-- \\App\\Service\\TextMaker -->
<g id="node1" class="node">
<title>\\App\\Service\\TextMaker</title>
<polygon fill="none" stroke="#000000" points="1277.6096,-946 1200.6096,-946 1200.6096,-910 1277.6096,-910 1277.6096,-946"/>
<text text-anchor="middle" x="1239.1096" y="-925.2" font-family="Courier,monospace" font-size="11.00" fill="#000000">TextMaker</text>
</g>
<!-- \\App\\Service\\UserMaker -->
<g id="node2" class="node">
<title>\\App\\Service\\UserMaker</title>
<polygon fill="none" stroke="#000000" points="1277.6096,-892 1200.6096,-892 1200.6096,-856 1277.6096,-856 1277.6096,-892"/>
<text text-anchor="middle" x="1239.1096" y="-871.2" font-family="Courier,monospace" font-size="11.00" fill="#000000">UserMaker</text>
</g>
<!-- \\App\\Service\\NotedTextMaker -->
<g id="node3" class="node">
<title>\\App\\Service\\NotedTextMaker</title>
<polygon fill="none" stroke="#000000" points="1294.6096,-838 1183.6096,-838 1183.6096,-802 1294.6096,-802 1294.6096,-838"/>
<text text-anchor="middle" x="1239.1096" y="-817.2" font-family="Courier,monospace" font-size="11.00" fill="#000000">NotedTextMaker</text>
</g>
<!-- \\App\\Service\\ObservatorMaker -->
<g id="node4" class="node">
<title>\\App\\Service\\ObservatorMaker</title>
<polygon fill="none" stroke="#000000" points="1298.1096,-784 1180.1096,-784 1180.1096,-748 1298.1096,-748 1298.1096,-784"/>
<text text-anchor="middle" x="1239.1096" y="-763.2" font-family="Courier,monospace" font-size="11.00" fill="#000000">ObservatorMaker</text>
</g>
<!-- \\App\\Repository\\ObservatorRepository -->
<g id="node5" class="node">
<title>\\App\\Repository\\ObservatorRepository</title>
<polygon fill="none" stroke="#000000" points="1315.1096,-374 1163.1096,-374 1163.1096,-338 1315.1096,-338 1315.1096,-374"/>
<text text-anchor="middle" x="1239.1096" y="-353.2" font-family="Courier,monospace" font-size="11.00" fill="#000000">ObservatorRepository</text>
</g>
<!-- \\Doctrine\\Bundle\\DoctrineBundle\\Repository\\ServiceEntityRepository -->
<g id="node15" class="node">
<title>\\Doctrine\\Bundle\\DoctrineBundle\\Repository\\ServiceEntityRepository</title>
<ellipse fill="none" stroke="#000000" cx="830.4827" cy="-72" rx="259.9539" ry="18"/>
<text text-anchor="middle" x="830.4827" y="-68.3" font-family="Times,serif" font-size="14.00" fill="#c0c0c0">\Doctrine\Bundle\DoctrineBundle\Repository\ServiceEntityRepository</text>
</g>
<!-- \\App\\Repository\\ObservatorRepository&#45;&gt;\\Doctrine\\Bundle\\DoctrineBundle\\Repository\\ServiceEntityRepository -->
<g id="edge1" class="edge">
<title>\\App\\Repository\\ObservatorRepository&#45;&gt;\\Doctrine\\Bundle\\DoctrineBundle\\Repository\\ServiceEntityRepository</title>
<path fill="none" stroke="#000000" d="M1174.3768,-337.825C1167.7293,-335.1852 1161.1906,-332.2461 1155.1096,-329 1031.4597,-262.9955 907.8386,-148.4392 855.9388,-97.5861"/>
<polygon fill="none" stroke="#000000" points="858.1007,-94.8025 848.5227,-90.2733 853.1858,-99.7868 858.1007,-94.8025"/>
</g>
<!-- \\App\\Repository\\NotedTextRepository -->
<g id="node6" class="node">
<title>\\App\\Repository\\NotedTextRepository</title>
<polygon fill="none" stroke="#000000" points="1311.6096,-320 1166.6096,-320 1166.6096,-284 1311.6096,-284 1311.6096,-320"/>
<text text-anchor="middle" x="1239.1096" y="-299.2" font-family="Courier,monospace" font-size="11.00" fill="#000000">NotedTextRepository</text>
</g>
<!-- \\App\\Repository\\NotedTextRepository&#45;&gt;\\Doctrine\\Bundle\\DoctrineBundle\\Repository\\ServiceEntityRepository -->
<g id="edge3" class="edge">
<title>\\App\\Repository\\NotedTextRepository&#45;&gt;\\Doctrine\\Bundle\\DoctrineBundle\\Repository\\ServiceEntityRepository</title>
<path fill="none" stroke="#000000" d="M1176.9641,-283.9563C1169.4927,-281.2235 1162.0556,-278.2271 1155.1096,-275 1041.5777,-222.2545 919.3979,-137.2495 862.7392,-95.9964"/>
<polygon fill="none" stroke="#000000" points="864.679,-93.0789 854.5415,-89.9994 860.546,-98.7285 864.679,-93.0789"/>
</g>
<!-- \\App\\Repository\\TextRepository -->
<g id="node7" class="node">
<title>\\App\\Repository\\TextRepository</title>
<polygon fill="none" stroke="#000000" points="1294.6096,-266 1183.6096,-266 1183.6096,-230 1294.6096,-230 1294.6096,-266"/>
<text text-anchor="middle" x="1239.1096" y="-245.2" font-family="Courier,monospace" font-size="11.00" fill="#000000">TextRepository</text>
</g>
<!-- \\App\\Repository\\TextRepository&#45;&gt;\\Doctrine\\Bundle\\DoctrineBundle\\Repository\\ServiceEntityRepository -->
<g id="edge4" class="edge">
<title>\\App\\Repository\\TextRepository&#45;&gt;\\Doctrine\\Bundle\\DoctrineBundle\\Repository\\ServiceEntityRepository</title>
<path fill="none" stroke="#000000" d="M1183.2051,-231.0612C1173.7597,-227.9059 1164.1047,-224.4956 1155.1096,-221 1052.8496,-181.2605 936.8888,-125.2855 875.0034,-94.4948"/>
<polygon fill="none" stroke="#000000" points="876.4202,-91.2902 865.9095,-89.9576 873.295,-97.5539 876.4202,-91.2902"/>
</g>
<!-- \\App\\Repository\\UserRepository -->
<g id="node8" class="node">
<title>\\App\\Repository\\UserRepository</title>
<polygon fill="none" stroke="#000000" points="1294.6096,-158 1183.6096,-158 1183.6096,-122 1294.6096,-122 1294.6096,-158"/>
<text text-anchor="middle" x="1239.1096" y="-137.2" font-family="Courier,monospace" font-size="11.00" fill="#000000">UserRepository</text>
</g>
<!-- \\App\\Repository\\UserRepository&#45;&gt;\\Doctrine\\Bundle\\DoctrineBundle\\Repository\\ServiceEntityRepository -->
<g id="edge6" class="edge">
<title>\\App\\Repository\\UserRepository&#45;&gt;\\Doctrine\\Bundle\\DoctrineBundle\\Repository\\ServiceEntityRepository</title>
<path fill="none" stroke="#000000" d="M1183.5751,-130.7584C1121.4234,-120.4157 1019.1541,-103.397 940.634,-90.3304"/>
<polygon fill="none" stroke="#000000" points="941.1333,-86.8654 930.6944,-88.6763 939.9842,-93.7705 941.1333,-86.8654"/>
</g>
<!-- \\Symfony\\Component\\Security\\Core\\User\\PasswordUpgraderInterface -->
<g id="node16" class="node">
<title>\\Symfony\\Component\\Security\\Core\\User\\PasswordUpgraderInterface</title>
<ellipse fill="none" stroke="#000000" cx="830.4827" cy="-18" rx="260.7538" ry="18"/>
<text text-anchor="middle" x="830.4827" y="-14.3" font-family="Times,serif" font-size="14.00" fill="#c0c0c0">\Symfony\Component\Security\Core\User\PasswordUpgraderInterface</text>
</g>
<!-- \\App\\Repository\\UserRepository&#45;&gt;\\Symfony\\Component\\Security\\Core\\User\\PasswordUpgraderInterface -->
<g id="edge7" class="edge">
<title>\\App\\Repository\\UserRepository&#45;&gt;\\Symfony\\Component\\Security\\Core\\User\\PasswordUpgraderInterface</title>
<path fill="none" stroke="#000000" stroke-dasharray="1,5" d="M1217.7716,-121.6353C1190.4447,-99.2782 1140.6723,-62.3618 1091.1096,-45 1075.4981,-39.5313 1059.0631,-35.0714 1042.3535,-31.4442"/>
<polygon fill="none" stroke="#000000" points="1042.9893,-28.0016 1032.4876,-29.4033 1041.5713,-34.8565 1042.9893,-28.0016"/>
</g>
<!-- \\App\\Repository\\CommentRepository -->
<g id="node9" class="node">
<title>\\App\\Repository\\CommentRepository</title>
<polygon fill="none" stroke="#000000" points="1304.6096,-212 1173.6096,-212 1173.6096,-176 1304.6096,-176 1304.6096,-212"/>
<text text-anchor="middle" x="1239.1096" y="-191.2" font-family="Courier,monospace" font-size="11.00" fill="#000000">CommentRepository</text>
</g>
<!-- \\App\\Repository\\CommentRepository&#45;&gt;\\Doctrine\\Bundle\\DoctrineBundle\\Repository\\ServiceEntityRepository -->
<g id="edge8" class="edge">
<title>\\App\\Repository\\CommentRepository&#45;&gt;\\Doctrine\\Bundle\\DoctrineBundle\\Repository\\ServiceEntityRepository</title>
<path fill="none" stroke="#000000" d="M1178.8153,-175.9985C1104.1942,-153.7195 977.4243,-115.871 899.1366,-92.4974"/>
<polygon fill="none" stroke="#000000" points="899.9488,-89.0873 889.3654,-89.5801 897.9462,-95.7947 899.9488,-89.0873"/>
</g>
<!-- \\App\\Repository\\ImageRepository -->
<g id="node10" class="node">
<title>\\App\\Repository\\ImageRepository</title>
<polygon fill="none" stroke="#000000" points="1298.1096,-428 1180.1096,-428 1180.1096,-392 1298.1096,-392 1298.1096,-428"/>
<text text-anchor="middle" x="1239.1096" y="-407.2" font-family="Courier,monospace" font-size="11.00" fill="#000000">ImageRepository</text>
</g>
<!-- \\App\\Repository\\ImageRepository&#45;&gt;\\Doctrine\\Bundle\\DoctrineBundle\\Repository\\ServiceEntityRepository -->
<g id="edge11" class="edge">
<title>\\App\\Repository\\ImageRepository&#45;&gt;\\Doctrine\\Bundle\\DoctrineBundle\\Repository\\ServiceEntityRepository</title>
<path fill="none" stroke="#000000" d="M1179.7873,-394.6929C1171.2268,-391.4221 1162.7414,-387.5486 1155.1096,-383 1020.5978,-302.8296 897.5333,-157.2994 850.593,-98.0994"/>
<polygon fill="none" stroke="#000000" points="853.1618,-95.704 844.2274,-90.0095 847.6606,-100.0327 853.1618,-95.704"/>
</g>
<!-- \\App\\Controller\\SecurityController\\SecurityController -->
<g id="node11" class="node">
<title>\\App\\Controller\\SecurityController\\SecurityController</title>
<polygon fill="none" stroke="#000000" points="1308.1096,-676 1170.1096,-676 1170.1096,-640 1308.1096,-640 1308.1096,-676"/>
<text text-anchor="middle" x="1239.1096" y="-655.2" font-family="Courier,monospace" font-size="11.00" fill="#000000">SecurityController</text>
</g>
<!-- \\App\\Controller\\BaseController -->
<g id="node14" class="node">
<title>\\App\\Controller\\BaseController</title>
<polygon fill="none" stroke="#000000" points="885.9827,-596 774.9827,-596 774.9827,-560 885.9827,-560 885.9827,-596"/>
<text text-anchor="middle" x="830.4827" y="-575.2" font-family="Courier,monospace" font-size="11.00" fill="#000000">BaseController</text>
</g>
<!-- \\App\\Controller\\SecurityController\\SecurityController&#45;&gt;\\App\\Controller\\BaseController -->
<g id="edge2" class="edge">
<title>\\App\\Controller\\SecurityController\\SecurityController&#45;&gt;\\App\\Controller\\BaseController</title>
<path fill="none" stroke="#000000" d="M1169.7916,-644.4291C1093.35,-629.4635 971.2754,-605.5641 896.2733,-590.8803"/>
<polygon fill="none" stroke="#000000" points="896.4984,-587.358 886.0122,-588.8714 895.1534,-594.2276 896.4984,-587.358"/>
</g>
<!-- \\App\\Controller\\TextController\\TextController -->
<g id="node12" class="node">
<title>\\App\\Controller\\TextController\\TextController</title>
<polygon fill="none" stroke="#000000" points="1294.6096,-596 1183.6096,-596 1183.6096,-560 1294.6096,-560 1294.6096,-596"/>
<text text-anchor="middle" x="1239.1096" y="-575.2" font-family="Courier,monospace" font-size="11.00" fill="#000000">TextController</text>
</g>
<!-- \\App\\Controller\\TextController\\TextController&#45;&gt;\\App\\Controller\\BaseController -->
<g id="edge5" class="edge">
<title>\\App\\Controller\\TextController\\TextController&#45;&gt;\\App\\Controller\\BaseController</title>
<path fill="none" stroke="#000000" d="M1183.5751,-578C1108.9152,-578 976.3654,-578 896.6332,-578"/>
<polygon fill="none" stroke="#000000" points="896.2233,-574.5001 886.2232,-578 896.2232,-581.5001 896.2233,-574.5001"/>
</g>
<!-- \\App\\Controller\\ObservatorController\\ObservatorController -->
<g id="node13" class="node">
<title>\\App\\Controller\\ObservatorController\\ObservatorController</title>
<polygon fill="none" stroke="#000000" points="1315.1096,-516 1163.1096,-516 1163.1096,-480 1315.1096,-480 1315.1096,-516"/>
<text text-anchor="middle" x="1239.1096" y="-495.2" font-family="Courier,monospace" font-size="11.00" fill="#000000">ObservatorController</text>
</g>
<!-- \\App\\Controller\\ObservatorController\\ObservatorController&#45;&gt;\\App\\Controller\\BaseController -->
<g id="edge9" class="edge">
<title>\\App\\Controller\\ObservatorController\\ObservatorController&#45;&gt;\\App\\Controller\\BaseController</title>
<path fill="none" stroke="#000000" d="M1162.7293,-512.9535C1085.9529,-527.9847 968.8467,-550.9114 896.125,-565.1487"/>
<polygon fill="none" stroke="#000000" points="895.3082,-561.7421 886.167,-567.0983 896.6532,-568.6117 895.3082,-561.7421"/>
</g>
<!-- \\Symfony\\Bundle\\FrameworkBundle\\Controller\\AbstractController -->
<g id="node17" class="node">
<title>\\Symfony\\Bundle\\FrameworkBundle\\Controller\\AbstractController</title>
<ellipse fill="none" stroke="#000000" cx="248.9279" cy="-578" rx="248.8558" ry="18"/>
<text text-anchor="middle" x="248.9279" y="-574.3" font-family="Times,serif" font-size="14.00" fill="#c0c0c0">\Symfony\Bundle\FrameworkBundle\Controller\AbstractController</text>
</g>
<!-- \\App\\Controller\\BaseController&#45;&gt;\\Symfony\\Bundle\\FrameworkBundle\\Controller\\AbstractController -->
<g id="edge10" class="edge">
<title>\\App\\Controller\\BaseController&#45;&gt;\\Symfony\\Bundle\\FrameworkBundle\\Controller\\AbstractController</title>
<path fill="none" stroke="#000000" d="M774.7208,-578C712.6724,-578 607.9803,-578 508.2757,-578"/>
<polygon fill="none" stroke="#000000" points="508.0227,-574.5001 498.0227,-578 508.0227,-581.5001 508.0227,-574.5001"/>
</g>
</g>
</svg>
